# xmcd CD database file
#
# Track frame offsets:
#	150
#	66602
#	103052
#	124170
#	152725
#
# Disc length: 2780 seconds
#
# Revision: 1
# Processed by: cddbd v1.5.2PL0 Copyright (c) Steve Scherf et al.
# Submitted via: CDex 1.81
#
DISCID=450ada05
DTITLE=Terumasa Hino - Double Rainbow
DYEAR=1981
DGENRE=Jazz
TTITLE0=Merry-Go-Round
TTITLE1=Cherry Hill Angel
TTITLE2=Yellow Jacket
TTITLE3=Miwa Yama
TTITLE4=Aboriginal
EXTD=YEAR: 1981
EXTT0=
EXTT1=
EXTT2=
EXTT3=
EXTT4=
PLAYORDER=
